# Blender 5.1.2
# www.blender.org
mtllib HELI PAD.mtl
o Cube.004
v -0.860394 -0.246470 -0.925185
v -0.860394 -0.246470 -0.099963
v -0.860394 -0.246470 0.725259
v -0.035172 -0.246470 -0.925185
v -0.035172 -0.246470 -0.099963
v -0.035172 -0.246470 0.725259
v 0.790050 -0.246470 -0.925185
v 0.790050 -0.246470 -0.099963
v 0.790050 -0.246470 0.725259
v -1.454554 -0.246470 1.319419
v -1.454554 -0.211964 1.550481
v -1.685616 -0.211964 1.319419
v -1.685616 0.211964 1.319419
v -1.454554 0.211964 1.550481
v -1.454554 0.246470 1.319419
v -1.685616 -0.211964 -1.519345
v -1.454554 -0.211964 -1.750407
v -1.454554 -0.246470 -1.519345
v -1.454554 0.246470 -1.519345
v -1.454554 0.211964 -1.750407
v -1.685616 0.211964 -1.519345
v 1.615272 -0.211964 1.319419
v 1.384210 -0.211964 1.550481
v 1.384210 -0.246470 1.319419
v 1.384210 0.246470 1.319419
v 1.384210 0.211964 1.550481
v 1.615272 0.211964 1.319419
v 1.384210 -0.211964 -1.750407
v 1.615272 -0.211964 -1.519345
v 1.384210 -0.246470 -1.519345
v 1.384210 0.246470 -1.519345
v 1.615272 0.211964 -1.519345
v 1.384210 0.211964 -1.750407
v 0.790050 -0.246470 -1.519345
v 0.790050 -0.211964 -1.750407
v -0.035172 -0.246470 -1.519345
v -0.035172 -0.211964 -1.750407
v -0.860394 -0.211964 -1.750407
v -0.860394 -0.246470 -1.519345
v -0.860394 0.246470 -1.519345
v -0.860394 0.211964 -1.750407
v -0.035172 0.246470 -1.519345
v -0.035172 0.211964 -1.750407
v 0.790050 0.211964 -1.750407
v 0.790050 0.246470 -1.519345
v -0.860394 -0.246470 1.319419
v -0.860394 -0.211964 1.550481
v -0.035172 -0.246470 1.319419
v -0.035172 -0.211964 1.550481
v 0.790050 -0.211964 1.550481
v 0.790050 -0.246470 1.319419
v 0.790050 0.246470 1.319419
v 0.790050 0.211964 1.550481
v -0.035172 0.246470 1.319419
v -0.035172 0.211964 1.550481
v -0.860394 0.211964 1.550481
v -0.860394 0.246470 1.319419
v -1.454554 -0.246470 -0.925185
v -1.685616 -0.211964 -0.925185
v -1.454554 -0.246470 -0.099963
v -1.685616 -0.211964 -0.099963
v -1.685616 -0.211964 0.725259
v -1.454554 -0.246470 0.725259
v -1.454554 0.246470 0.725259
v -1.685616 0.211964 0.725259
v -1.454554 0.246470 -0.099963
v -1.685616 0.211964 -0.099963
v -1.685616 0.211964 -0.925185
v -1.454554 0.246470 -0.925185
v 1.384210 -0.246470 0.725259
v 1.615272 -0.211964 0.725259
v 1.384210 -0.246470 -0.099963
v 1.615272 -0.211964 -0.099963
v 1.615272 -0.211964 -0.925185
v 1.384210 -0.246470 -0.925185
v 1.384210 0.246470 -1.006457
v 1.615272 0.211964 -0.925185
v 1.384210 0.246470 -0.099963
v 1.615272 0.211964 -0.099963
v 1.615272 0.211964 0.725259
v 1.384210 0.246470 0.725259
v 0.790050 0.308975 -1.006457
v 0.790050 0.308975 -0.099963
v 0.790050 0.308975 0.725259
v -0.035172 0.308975 -1.006457
v -0.035172 0.308975 -0.099963
v -0.035172 0.308975 0.725259
v -0.860394 0.308975 -1.006457
v -0.872004 0.308975 -0.111573
v -0.860394 0.308975 0.725259
v -1.454554 0.308975 -1.006457
v -1.454554 0.308975 -1.519345
v 0.790050 0.308975 -1.519345
v 1.384210 0.308975 -1.519345
v 1.384210 0.308975 0.725259
v 1.384210 0.308975 1.319419
v -0.860394 0.308975 1.319419
v -1.454554 0.308975 1.319419
v -0.860394 0.308975 -1.519345
v -0.035172 0.308975 -1.519345
v 0.790050 0.308975 1.319419
v -0.035172 0.308975 1.319419
v -1.454554 0.308975 0.725259
v -1.454554 0.308975 -0.099963
v 1.384210 0.308975 -1.006457
v 1.384210 0.308975 -0.099963
vn -0.0000 -1.0000 -0.0000
vn -0.0000 -0.0000 -1.0000
vn -1.0000 -0.0000 -0.0000
vn 1.0000 -0.0000 -0.0000
vn -0.1461 -0.9784 0.1461
vn -0.1461 0.9784 0.1461
vn -0.1461 -0.9784 -0.1461
vn -0.1461 0.9784 -0.1461
vn 0.1461 -0.9784 0.1461
vn 0.1461 0.9784 0.1461
vn 0.1461 -0.9784 -0.1461
vn 0.1461 0.9784 -0.1461
vn -0.1477 -0.9890 -0.0000
vn -0.7071 -0.0000 0.7071
vn -0.1477 0.9890 -0.0000
vn -0.7071 -0.0000 -0.7071
vn -0.0000 -0.9890 -0.1477
vn -0.0000 0.9890 -0.1477
vn 0.7071 -0.0000 -0.7071
vn 0.1477 -0.9890 -0.0000
vn 0.1477 0.9890 -0.0000
vn 0.7071 -0.0000 0.7071
vn -0.0000 -0.9890 0.1477
vn -0.0000 0.9890 0.1477
vn -0.0000 -0.0000 1.0000
vn -0.0000 1.0000 -0.0000
vt 0.192918 0.511034
vt 0.304405 0.498623
vt 0.304405 0.542095
vt 0.192918 0.554506
vt 0.304405 0.585567
vt 0.192918 0.597977
vt 0.149446 0.511034
vt 0.149446 0.554506
vt 0.149446 0.597977
vt 0.596037 0.404136
vt 0.596037 0.360664
vt 0.596037 0.313135
vt 0.596037 0.273720
vt 0.596037 0.186776
vt 0.596037 0.155476
vt 0.672080 0.587790
vt 0.671338 0.535261
vt 0.674153 0.588279
vt 0.118146 0.629277
vt 0.118146 0.641449
vt 0.105974 0.629277
vt 0.583865 0.155476
vt 0.583865 0.143304
vt 0.105974 0.479734
vt 0.118146 0.467561
vt 0.118146 0.479734
vt 0.583865 0.326321
vt 0.583865 0.305020
vt 0.357007 0.616867
vt 0.347878 0.635125
vt 0.335705 0.616867
vt 0.673343 0.637395
vt 0.583865 0.677140
vt 0.583865 0.655839
vt 0.347878 0.449065
vt 0.357007 0.467323
vt 0.335705 0.467323
vt 0.669520 0.423013
vt 0.583865 0.500209
vt 0.583865 0.478908
vt 0.118146 0.597977
vt 0.105974 0.597977
vt 0.379469 0.146407
vt 0.379469 0.158579
vt 0.583865 0.273720
vt 0.379469 0.332467
vt 0.379469 0.308122
vt 0.149446 0.479734
vt 0.149446 0.467561
vt 0.596037 0.447608
vt 0.583865 0.447608
vt 0.335705 0.498623
vt 0.360050 0.498623
vt 0.583865 0.621496
vt 0.304405 0.616867
vt 0.304405 0.629039
vt 0.596037 0.795384
vt 0.596037 0.826684
vt 0.583865 0.826684
vt 0.583865 0.795384
vt 0.304405 0.467323
vt 0.304405 0.455151
vt 0.192918 0.479734
vt 0.192918 0.467561
vt 0.583865 0.360664
vt 0.583865 0.404136
vt 0.149446 0.629277
vt 0.149446 0.641449
vt 0.192918 0.629277
vt 0.192918 0.641449
vt 0.596037 0.708440
vt 0.583865 0.708440
vt 0.596037 0.751912
vt 0.583865 0.751912
vt 0.118146 0.511034
vt 0.105974 0.511034
vt 0.118146 0.554506
vt 0.105974 0.554506
vt 0.583865 0.186776
vt 0.596037 0.230248
vt 0.583865 0.230248
vt 0.335705 0.585567
vt 0.360050 0.585567
vt 0.335705 0.542095
vt 0.360050 0.542095
vt 0.669955 0.464656
vt 0.583865 0.534552
vt 0.583865 0.578024
vt 0.379469 0.189879
vt 0.388246 0.798487
vt 0.388246 0.829787
vt 0.672652 0.637395
vt 0.379469 0.363767
vt 0.379469 0.276823
vt 0.388246 0.711543
vt 0.379469 0.450711
vt 0.379469 0.407239
vt 0.388246 0.755015
vt 0.379469 0.233351
vt 0.824834 0.463620
vt 0.909290 0.463460
vt 0.909981 0.534554
vt 0.825525 0.533939
vt 0.908240 0.587726
vt 0.824655 0.588341
vt 0.738403 0.463948
vt 0.739094 0.535043
vt 0.739094 0.588214
vt 0.974311 0.586957
vt 0.975497 0.636304
vt 0.908783 0.636485
vt 0.909342 0.424196
vt 0.974439 0.424063
vt 0.973971 0.464023
vt 0.739181 0.636687
vt 0.738890 0.423400
vt 0.824271 0.424377
vt 0.823664 0.636485
vt 0.974311 0.534093
s 0
usemtl Material.009
f 4/1/1 7/2/1 8/3/1 5/4/1
f 5/4/1 8/3/1 9/5/1 6/6/1
f 1/7/1 4/1/1 5/4/1 2/8/1
f 2/8/1 5/4/1 6/6/1 3/9/1
f 42/10/2 40/11/2 99/11/2 100/10/2
f 19/12/3 69/13/3 91/13/3 92/12/3
f 64/14/3 15/15/3 98/15/3 103/14/3
f 81/16/4 78/17/4 106/17/4 95/18/4
f 10/19/5 11/20/5 12/21/5
f 13/22/6 14/23/6 15/15/6
f 16/24/7 17/25/7 18/26/7
f 19/12/8 20/27/8 21/28/8
f 22/29/9 23/30/9 24/31/9
f 25/32/10 26/33/10 27/34/10
f 28/35/11 29/36/11 30/37/11
f 31/38/12 32/39/12 33/40/12
f 63/41/13 10/19/13 12/21/13 62/42/13
f 11/43/14 14/23/14 13/22/14 12/44/14
f 69/13/15 19/12/15 21/28/15 68/45/15
f 20/27/16 17/46/16 16/47/16 21/28/16
f 39/48/17 18/26/17 17/25/17 38/49/17
f 45/50/18 31/38/18 33/40/18 44/51/18
f 32/39/19 29/36/19 28/35/19 33/40/19
f 75/52/20 30/37/20 29/36/20 74/53/20
f 81/16/21 25/32/21 27/34/21 80/54/21
f 26/33/22 23/30/22 22/29/22 27/34/22
f 51/55/23 24/31/23 23/30/23 50/56/23
f 57/57/24 15/58/24 14/59/24 56/60/24
f 30/37/17 34/61/17 35/62/17 28/35/17
f 34/61/17 36/63/17 37/64/17 35/62/17
f 36/63/17 39/48/17 38/49/17 37/64/17
f 19/12/18 40/11/18 41/65/18 20/27/18
f 40/11/18 42/10/18 43/66/18 41/65/18
f 42/10/18 45/50/18 44/51/18 43/66/18
f 10/19/23 46/67/23 47/68/23 11/20/23
f 46/67/23 48/69/23 49/70/23 47/68/23
f 48/69/23 51/55/23 50/56/23 49/70/23
f 25/32/24 52/71/24 53/72/24 26/33/24
f 52/71/24 54/73/24 55/74/24 53/72/24
f 54/73/24 57/57/24 56/60/24 55/74/24
f 18/26/13 58/75/13 59/76/13 16/24/13
f 58/75/13 60/77/13 61/78/13 59/76/13
f 60/77/13 63/41/13 62/42/13 61/78/13
f 15/15/15 64/14/15 65/79/15 13/22/15
f 64/14/15 66/80/15 67/81/15 65/79/15
f 66/80/15 69/13/15 68/45/15 67/81/15
f 24/31/20 70/82/20 71/83/20 22/29/20
f 70/82/20 72/84/20 73/85/20 71/83/20
f 72/84/20 75/52/20 74/53/20 73/85/20
f 31/38/21 76/86/21 77/87/21 32/39/21
f 76/86/21 78/17/21 79/88/21 77/87/21
f 78/17/21 81/16/21 80/54/21 79/88/21
f 12/44/3 13/22/3 65/79/3 62/89/3
f 47/90/25 56/60/25 14/59/25 11/91/25
f 63/41/1 3/9/1 46/67/1 10/19/1
f 52/71/25 25/32/25 96/92/25 101/71/25
f 17/46/2 20/27/2 41/65/2 38/93/2
f 18/26/1 39/48/1 1/7/1 58/75/1
f 59/94/3 68/45/3 21/28/3 16/47/3
f 69/13/3 66/80/3 104/80/3 91/13/3
f 23/30/25 26/33/25 53/72/25 50/95/25
f 9/5/1 70/82/1 24/31/1 51/55/1
f 71/83/4 80/54/4 27/34/4 22/29/4
f 40/11/2 19/12/2 92/12/2 99/11/2
f 29/36/4 32/39/4 77/87/4 74/53/4
f 34/61/1 30/37/1 75/52/1 7/2/1
f 35/96/2 44/51/2 33/40/2 28/35/2
f 57/57/25 54/73/25 102/73/25 97/57/25
f 37/97/2 43/66/2 44/51/2 35/96/2
f 36/63/1 34/61/1 7/2/1 4/1/1
f 38/93/2 41/65/2 43/66/2 37/97/2
f 39/48/1 36/63/1 4/1/1 1/7/1
f 78/17/4 76/86/4 105/86/4 106/17/4
f 45/50/2 42/10/2 100/10/2 93/50/2
f 49/98/25 55/74/25 56/60/25 47/90/25
f 3/9/1 6/6/1 48/69/1 46/67/1
f 50/95/25 53/72/25 55/74/25 49/98/25
f 6/6/1 9/5/1 51/55/1 48/69/1
f 66/80/3 64/14/3 103/14/3 104/80/3
f 15/58/25 57/57/25 97/57/25 98/58/25
f 61/99/3 67/81/3 68/45/3 59/94/3
f 58/75/1 1/7/1 2/8/1 60/77/1
f 62/89/3 65/79/3 67/81/3 61/99/3
f 60/77/1 2/8/1 3/9/1 63/41/1
f 54/73/25 52/71/25 101/71/25 102/73/25
f 25/32/4 81/16/4 95/18/4 96/92/4
f 73/85/4 79/88/4 80/54/4 71/83/4
f 8/3/1 72/84/1 70/82/1 9/5/1
f 74/53/4 77/87/4 79/88/4 73/85/4
f 7/2/1 75/52/1 72/84/1 8/3/1
f 31/38/2 45/50/2 93/50/2 94/38/2
f 76/86/4 31/38/4 94/38/4 105/86/4
f 85/100/26 88/101/26 89/102/26 86/103/26
f 86/103/26 89/102/26 90/104/26 87/105/26
f 82/106/26 85/100/26 86/103/26 83/107/26
f 83/107/26 86/103/26 87/105/26 84/108/26
f 90/104/26 103/109/26 98/110/26 97/111/26
f 99/112/26 92/113/26 91/114/26 88/101/26
f 95/18/26 84/108/26 101/115/26 96/92/26
f 94/38/26 93/116/26 82/106/26 105/86/26
f 100/117/26 99/112/26 88/101/26 85/100/26
f 93/116/26 100/117/26 85/100/26 82/106/26
f 84/108/26 87/105/26 102/118/26 101/115/26
f 87/105/26 90/104/26 97/111/26 102/118/26
f 89/102/26 104/119/26 103/109/26 90/104/26
f 88/101/26 91/114/26 104/119/26 89/102/26
f 105/86/26 82/106/26 83/107/26 106/17/26
f 106/17/26 83/107/26 84/108/26 95/18/26
